<?xml version="1.0" encoding="UTF-8"?>
<svg width="12px" height="16px" viewBox="0 0 12 16" version="1.1" xmlns="http://www.w3.org/2000/svg" xmlns:xlink="http://www.w3.org/1999/xlink">
    <!-- Generator: Sketch 48.2 (47327) - http://www.bohemiancoding.com/sketch -->
    <title>ios-locked-outline</title>
    <desc>Created with Sketch.</desc>
    <defs></defs>
    <g id="Abo---05---Adresse" stroke="none" stroke-width="1" fill="none" fill-rule="evenodd" transform="translate(-886.000000, -1034.000000)">
        <g id="ios-locked-outline" transform="translate(886.000000, 1034.000000)" fill="#000000" fill-rule="nonzero">
            <path d="M9.9,6.76923077 L9.9,4 C9.9,1.79115385 8.153925,0 6.0006,0 C3.846075,0 2.1,1.79115385 2.1,4 L2.1,6.76923077 L0,6.76923077 L0,16 L12,16 L12,6.76923077 L9.9,6.76923077 Z M2.7,4 C2.7,2.13373077 4.18065,0.615384615 6.0006,0.615384615 C7.8199125,0.615384615 9.3,2.13373077 9.3,4 L9.3,6.76923077 L2.7,6.76923077 L2.7,4 Z M11.4,15.3846154 L0.6,15.3846154 L0.6,7.38461538 L11.4,7.38461538 L11.4,15.3846154 Z" id="Shape"></path>
            <path d="M6,9.23076923 C5.3372625,9.23076923 4.8,9.78180769 4.8,10.4615385 C4.8,11.035 5.182425,11.5168846 5.7,11.6535385 L5.7,12.9230769 L6.3,12.9230769 L6.3,11.6535385 C6.817575,11.5168846 7.2,11.035 7.2,10.4615385 C7.2,9.78180769 6.6627375,9.23076923 6,9.23076923 Z M6,11.0769231 C5.669175,11.0769231 5.4,10.8008462 5.4,10.4615385 C5.4,10.1222308 5.669175,9.84615385 6,9.84615385 C6.330825,9.84615385 6.6,10.1222308 6.6,10.4615385 C6.6,10.8008462 6.330825,11.0769231 6,11.0769231 Z" id="Shape"></path>
        </g>
    </g>
</svg>